<?xml version="1.0" encoding="iso-8859-1"?>
<!-- Generator: Adobe Illustrator 19.0.0, SVG Export Plug-In . SVG Version: 6.00 Build 0)  -->
<svg version="1.1" id="Layer_1" xmlns="http://www.w3.org/2000/svg" xmlns:xlink="http://www.w3.org/1999/xlink" x="0px" y="0px"
	 viewBox="0 0 512.001 512.001" style="enable-background:new 0 0 512.001 512.001;" xml:space="preserve">
<g>
	<g>
		
			<rect x="356.692" y="100.991" transform="matrix(0.5812 -0.8138 0.8138 0.5812 -19.8216 385.1755)" width="15.201" height="221.707"/>
	</g>
</g>
<g>
	<g>
		<path d="M510.119,136.846c-3.025-10.811-9.61-19.316-18.465-23.907l-9.885-5.263c4.882-9.367,9.632-18.87,14.148-28.346
			c4.943-10.363,5.727-21.738,2.152-31.21c-2.683-7.11-7.695-12.534-14.065-15.256L413.539,2.207C410.114,0.743,406.47,0,402.707,0
			c-12.431,0-24.302,8.044-30.245,20.497c-3.775,7.919-7.731,15.841-11.79,23.637c-2.637-0.737-5.259-1.119-7.848-1.119
			c-17.096,0-28.865,15.532-38.126,30.731c-7.961,13.094-16.439,26.075-25.251,38.673c-16.726-8.502-40.778-8.909-69.259,24.861
			c-25.122,29.883-53.012,57.773-82.904,82.903c-33.734,28.447-33.358,52.48-24.846,69.248
			c-12.595,8.811-25.579,17.29-38.688,25.259c-11.29,6.88-36.39,22.181-29.624,45.981c-7.811,4.067-15.727,8.021-23.622,11.783
			c-16.694,7.968-24.726,26.01-18.267,41.12l30.617,70.373c4.299,10.061,14.954,16.311,27.808,16.312c0.001,0,0.001,0,0.001,0
			c6.249,0,12.708-1.505,18.674-4.35c9.48-4.518,18.982-9.268,28.349-14.149l5.224,9.812c6.632,12.792,20.928,20.429,38.243,20.43
			c0.002,0,0.002,0,0.005,0c12.189,0,24.672-3.677,36.093-10.631c17.522-10.652,34.872-22.006,51.677-33.803l6.259,8.764
			c7.273,10.485,19.232,17.321,33.684,19.255c2.916,0.39,5.893,0.582,8.909,0.582c20.356,0,42.59-8.737,61.078-24.305
			c9.262-7.786,18.504-15.845,27.469-23.951l-10.195-11.275c-8.83,7.985-17.933,15.923-27.059,23.595
			c-18.014,15.168-39.767,22.754-58.187,20.289c-7.2-0.963-17.075-3.98-23.232-12.884l-6.339-8.874l0.001-0.001L128.79,287.211
			c-4.36-6.238-17.558-25.177,18.283-55.4c30.551-25.684,59.065-54.198,84.742-84.74c30.204-35.815,49.133-22.677,55.326-18.349
			L458.77,251.307v-0.001l8.78,6.271l0.094,0.066c8.904,6.158,11.921,16.032,12.884,23.231c2.464,18.421-5.12,40.174-20.292,58.194
			c-24.694,29.377-51.386,57.617-79.334,83.938l10.421,11.066c28.376-26.723,55.476-55.396,80.544-85.217
			c17.88-21.236,26.749-47.402,23.728-69.995c-1.932-14.448-8.768-26.407-19.251-33.681l-8.766-6.261
			c11.799-16.809,23.153-34.159,33.8-51.673C511.177,171.146,514.445,152.306,510.119,136.846z M72.795,482.186
			c-3.937,1.879-8.132,2.871-12.132,2.871h-0.001c-6.665,0-11.965-2.715-13.851-7.13l-30.617-70.375
			c-3.172-7.419,1.698-17.011,10.852-21.38c7.854-3.742,15.735-7.667,23.514-11.708l22.493,42.245l27.494,51.639
			C91.38,473.125,82.075,477.765,72.795,482.186z M155.298,350.477L230.095,455.2c-16.5,11.58-33.538,22.723-50.744,33.183
			c-8.914,5.428-18.926,8.417-28.192,8.417c-0.002,0-0.003,0-0.003,0c-11.529-0.001-20.781-4.572-24.788-12.3l-5.242-9.846h0.001
			L60.441,360.681c-4.923-9.398-3.086-18.2,21.211-33.006c13.251-8.056,26.382-16.624,39.127-25.527L155.298,350.477z
			 M386.182,27.04c3.38-7.081,10.021-11.84,16.526-11.84c1.696,0,3.33,0.331,4.812,0.965l70.465,30.656
			c3.298,1.41,5.009,4.404,5.863,6.667c2.091,5.536,1.473,12.751-1.652,19.301c-4.419,9.275-9.059,18.581-13.836,27.747
			l-93.883-49.987C378.507,42.792,382.43,34.911,386.182,27.04z M488.391,179.344c-10.456,17.198-21.598,34.236-33.181,50.74
			L302.158,120.768c8.907-12.749,17.475-25.881,25.524-39.119c9.875-16.206,17.629-23.434,25.142-23.434
			c2.453,0,5.029,0.726,7.835,2.196l123.925,65.983c6.6,3.422,9.569,9.8,10.897,14.548
			C498.692,152.42,496.043,166.774,488.391,179.344z"/>
	</g>
</g>
<g>
</g>
<g>
</g>
<g>
</g>
<g>
</g>
<g>
</g>
<g>
</g>
<g>
</g>
<g>
</g>
<g>
</g>
<g>
</g>
<g>
</g>
<g>
</g>
<g>
</g>
<g>
</g>
<g>
</g>
</svg>
