<?xml version="1.0" encoding="iso-8859-1"?>
<!-- Generator: Adobe Illustrator 18.0.0, SVG Export Plug-In . SVG Version: 6.00 Build 0)  -->
<!DOCTYPE svg PUBLIC "-//W3C//DTD SVG 1.1//EN" "http://www.w3.org/Graphics/SVG/1.1/DTD/svg11.dtd">
<svg version="1.1" id="Capa_1" xmlns="http://www.w3.org/2000/svg" xmlns:xlink="http://www.w3.org/1999/xlink" x="0px" y="0px"
	 viewBox="0 0 407.576 407.576" style="enable-background:new 0 0 407.576 407.576;" xml:space="preserve">
<g>
	<g>
		<g>
			<g>
				<path d="M203.787,264.016c-14.671,0-26.605-11.936-26.605-26.607c0-3.313,2.686-6,6-6h41.213c3.313,0,6,2.687,6,6
					C230.395,252.081,218.458,264.016,203.787,264.016z M190.472,243.409c2.293,5.07,7.398,8.607,13.315,8.607
					c5.917,0,11.024-3.537,13.317-8.607H190.472z"/>
			</g>
			<g>
				<path d="M205.688,224.507h-3.799c-3.314,0-6-2.687-6-6c0-2.537,1.574-4.705,3.799-5.584v-19.361c0-3.313,2.686-6,6-6
					c3.313,0,6,2.687,6,6v24.946C211.688,221.82,209.001,224.507,205.688,224.507z"/>
			</g>
			<g>
				<g>
					<path d="M177.287,193.8h-11.992c-3.313,0-6-2.686-6-6c0-3.313,2.687-6,6-6h11.992c3.313,0,6,2.687,6,6
						C183.287,191.114,180.601,193.8,177.287,193.8z"/>
				</g>
				<g>
					<path d="M242.282,193.8h-11.992c-3.314,0-6-2.686-6-6c0-3.313,2.686-6,6-6h11.992c3.313,0,6,2.687,6,6
						C248.282,191.114,245.595,193.8,242.282,193.8z"/>
				</g>
			</g>
		</g>
		<path d="M373.161,96.193c-21.312-11.649-46.307-8.993-68.291,6.84c-5.974-17.047-16.274-29.992-29.891-37.556
			c-10.758-38.658-43.557-65.404-80.678-65.404h-0.111c-16.502,0.023-31.869,5.478-44.442,15.775
			c-11.604,9.503-20.461,23.024-25.941,39.433c-12.311-9.231-25.284-14.94-38.674-16.973c-14.629-2.222-29.292,0.153-42.4,6.869
			C14.013,59.891-2.985,92.968,0.435,127.485c2.522,25.459,15.556,50.035,37.691,71.071c25.215,23.961,61.397,42.882,107.56,56.265
			c8.496,17.128,21.525,30.251,36.917,36.628v11.844c-3.971-1.48-8.426-2.44-13.353-2.488c-1.986-0.177-4.113,0.482-5.87,1.851
			c-3.133,2.439-5.111,7.034-6.038,14.169c-30.959,11.382-50.023,33.02-50.023,57.14v27.539c0,3.313,2.687,6,6,6h180.936
			c3.313,0,6-2.687,6-6v-27.539c0-24.121-19.063-45.757-50.023-57.138c-0.927-7.135-2.905-11.731-6.038-14.171
			c-1.757-1.369-3.888-2.028-5.87-1.851c-4.927,0.049-9.382,1.008-13.352,2.488v-11.851c8.046-3.335,15.449-8.502,21.893-15.133
			c0.171,0.177,0.34,0.345,0.503,0.529c2.138,2.413,5.122,1.807,5.517,1.729c127.457-25.265,150.02-85.35,153.805-110.01
			C411.268,138.739,397.792,109.658,373.161,96.193z M12.376,126.301c-2.938-29.65,11.461-57.959,35.828-70.444
			c23.58-12.083,50.859-6.886,74.842,14.257l0.024-0.027c0.706,0.628,1.57,1.1,2.552,1.341c3.217,0.787,6.467-1.179,7.258-4.396
			c8.439-34.37,31.365-54.915,61.328-54.957h0.082c23.961,0,53.264,15.024,66.16,47.722c-18.059-4.434-37.661-0.266-53.782,11.532
			c-0.958-0.028-1.918-0.049-2.882-0.049c-48.321,0-87.634,36.44-87.634,81.233v33.396c-2.848,3.985-4.563,9.102-4.563,14.675
			c0,12.682,8.874,23,19.781,23c1.602,0,3.186-0.233,4.722-0.671c0.817,6.117,2.117,12.027,3.878,17.646
			C31.936,206.512,14.697,149.715,12.376,126.301z M131.371,189.582c1.53,0,2.792,0.66,3.727,1.406v19.188
			c-0.936,0.746-2.197,1.406-3.727,1.406c-4.218,0-7.781-5.037-7.781-11C123.59,194.62,127.154,189.582,131.371,189.582z
			 M141.099,146.512c-3.313,0-6,2.687-6,6v25.489c-1.222-0.273-2.469-0.419-3.727-0.419c-1.096,0-2.171,0.109-3.219,0.31v-25.38
			c0-38.176,33.929-69.233,75.634-69.233c41,0,75.638,30.243,75.638,66.042v28.571c-1.048-0.2-2.123-0.31-3.219-0.31
			c-1.259,0-2.506,0.146-3.728,0.419c0,0,0-25.437,0-25.489c0-3.313-2.687-6-6-6h-60.961l-16.678-31.787
			c-1.173-2.237-3.625-3.496-6.125-3.158c-2.503,0.343-4.523,2.216-5.054,4.686l-6.496,30.26H141.099z M283.987,200.582
			c0,5.963-3.563,11-7.781,11c-1.531,0-2.792-0.66-3.728-1.406l0.001-19.189c0.937-0.746,2.196-1.405,3.728-1.405
			C280.423,189.582,283.987,194.62,283.987,200.582z M170.481,312.851c8.18,0.492,14.593,4.63,18.899,8.536
			c-1.107,1.974-1.746,4.245-1.746,6.665c0,2.42,0.639,4.691,1.746,6.665c-4.308,3.907-10.722,8.044-18.899,8.537
			c-0.658-1.612-1.761-5.727-1.761-15.202C168.72,318.578,169.822,314.463,170.481,312.851z M197.788,395.502h-50.689v-14.48
			c0-3.314-2.686-6-6-6c-3.313,0-6,2.686-6,6v14.48h-15.778v-21.539c0-17.753,14.13-34.129,37.418-44.004
			c0.191,12.622,2.544,19.843,6.643,23.492c2.194,1.954,5.659,1.868,5.87,1.85c12.788-0.127,22.409-6.359,28.537-12.02V395.502z
			 M206.271,329.724h-4.965c-0.922,0-1.672-0.75-1.672-1.672c0-0.922,0.75-1.672,1.672-1.672h4.965c0.922,0,1.672,0.75,1.672,1.672
			C207.943,328.974,207.193,329.724,206.271,329.724z M206.271,314.38h-4.965c-0.601,0-1.186,0.052-1.767,0.128
			c-1.409-1.425-3.055-2.931-4.936-4.406v-15.166c3.005,0.515,6.07,0.783,9.185,0.783s6.18-0.27,9.185-0.784v15.167
			c-1.881,1.476-3.526,2.981-4.936,4.406C207.457,314.432,206.871,314.38,206.271,314.38z M244.196,353.452
			c4.118-3.627,6.45-10.868,6.643-23.488c23.287,9.873,37.418,26.246,37.418,44v21.539h-15.778v-14.48c0-3.314-2.687-6-6-6
			c-3.313,0-6,2.686-6,6v14.48h-50.689v-52.222c6.128,5.661,15.749,11.893,28.537,12.02
			C238.536,355.32,242.134,355.267,244.196,353.452z M237.096,312.851c0.659,1.612,1.761,5.727,1.761,15.201
			c0,9.475-1.103,13.59-1.761,15.202c-8.178-0.493-14.592-4.63-18.899-8.537c1.107-1.974,1.746-4.245,1.746-6.665
			c0-2.42-0.639-4.691-1.746-6.665C222.503,317.481,228.916,313.343,237.096,312.851z M203.788,283.719
			c-31.259,0-56.689-33.887-56.689-75.541v-49.666h28.914c2.828,0,5.273-1.975,5.866-4.74l4.034-18.795l10.662,20.322
			c1.037,1.976,3.083,3.213,5.314,3.213h58.589l-0.001,49.718C260.455,249.859,235.034,283.719,203.788,283.719z M394.83,166.737
			c-3.124,20.354-15.638,39.713-36.19,55.987c-24.417,19.332-59.119,33.805-103.177,43.061
			c8.174-11.895,13.852-26.632,16.023-42.872c1.533,0.436,3.117,0.67,4.718,0.67c10.907,0,19.781-10.318,19.781-23
			c0-5.573-1.715-10.689-4.563-14.675v-36.587c0-35.411-28.125-66.218-65.152-75.317c11.581-4.688,24.121-5.271,35.54-1.313
			c16.713,5.793,28.795,20.697,34.018,41.968c0.672,2.738,3.124,4.57,5.822,4.57c0.474,0,0.955-0.057,1.436-0.174
			c0.98-0.241,1.843-0.712,2.549-1.339l0.02,0.022c19.922-17.563,42.43-21.578,61.75-11.015
			C387.622,117.774,398.644,141.892,394.83,166.737z"/>
	</g>
</g>
<g>
</g>
<g>
</g>
<g>
</g>
<g>
</g>
<g>
</g>
<g>
</g>
<g>
</g>
<g>
</g>
<g>
</g>
<g>
</g>
<g>
</g>
<g>
</g>
<g>
</g>
<g>
</g>
<g>
</g>
</svg>
