<svg width="30" height="35" viewBox="0 0 30 35" fill="none" xmlns="http://www.w3.org/2000/svg">
<path d="M19.9998 21.4128C22.301 21.4128 24.3844 22.3455 25.8924 23.8536C27.4004 25.3616 28.3332 27.4449 28.3332 29.7461V33.0794H1.6665V29.7461C1.6665 27.4449 2.59924 25.3616 4.10728 23.8536C5.61532 22.3455 7.69865 21.4128 9.99984 21.4128H19.9998ZM15.3824 1.41278C17.1244 1.41278 18.709 2.09212 19.8782 3.19816C21.039 4.29616 21.7911 5.81538 21.8746 7.5066L21.8824 9.16919C21.8824 10.9347 21.1544 12.5342 19.9827 13.6931C18.8042 14.8586 17.1768 15.5794 15.3824 15.5794C13.6403 15.5794 12.0557 14.9001 10.8865 13.7941C9.72572 12.6961 8.97364 11.1768 8.89015 9.48563L8.88236 7.82304C8.88236 6.05749 9.61029 4.45804 10.782 3.29917C11.9605 2.13367 13.5879 1.41278 15.3824 1.41278Z" stroke="black" stroke-width="2"/>
</svg>
